<svg version="1" xmlns="http://www.w3.org/2000/svg" width="94.667" height="94.667" viewBox="0 0 71.000000 71.000000"><path d="M31 10.9c-.8 1-1.6 2.3-1.7 2.9-.2.7-4 6.7-8.4 13.4C9.2 44.8 8.7 45.9 10.2 47.9c3.2 4.1 5.7 5.8 8 5.4 2.2-.4 2.3-.2 2.3 5.3 0 4.6.4 5.9 2 6.8 1.1.6 2.8 1.9 3.7 3 1.4 1.5 2.5 1.7 5.5 1.2 4.2-.8 5.1-1 7.3-1.9 3.2-1.3 10.6-3.6 13.2-4.1 4.6-.8 4.8-1.3 4.6-10.7-.1-4.9.1-9.1.3-9.4.3-.2 3.1-1.3 6.2-2.2l5.7-1.8-5.2-5.1c-5-4.9-6.9-6.7-16.4-15.4-5-4.6-12.6-10-13.9-9.9-.5 0-1.7.9-2.5 1.8z"/></svg>