<?xml version="1.0" standalone="no"?>
<!DOCTYPE svg PUBLIC "-//W3C//DTD SVG 20010904//EN"
 "http://www.w3.org/TR/2001/REC-SVG-20010904/DTD/svg10.dtd">
<svg version="1.0" xmlns="http://www.w3.org/2000/svg"
 width="71.000000pt" height="71.000000pt" viewBox="0 0 71.000000 71.000000"
 preserveAspectRatio="xMidYMid meet">
<metadata>
Created by potrace 1.11, written by Peter Selinger 2001-2013
</metadata>
<g transform="translate(0.000000,71.000000) scale(0.100000,-0.100000)"
fill="#000000" stroke="none">
<path d="M310 601 c-8 -10 -16 -23 -17 -29 -2 -7 -40 -67 -84 -134 -117 -176
-122 -187 -107 -207 32 -41 57 -58 80 -54 22 4 23 2 23 -53 0 -46 4 -59 20
-68 11 -6 28 -19 37 -30 14 -15 25 -17 55 -12 42 8 51 10 73 19 32 13 106 36
132 41 46 8 48 13 46 107 -1 49 1 91 3 94 3 2 31 13 62 22 l57 18 -52 51 c-50
49 -69 67 -164 154 -50 46 -126 100 -139 99 -5 0 -17 -9 -25 -18z"/>
</g>
</svg>
