<svg version="1" xmlns="http://www.w3.org/2000/svg" width="933.333" height="933.333" viewBox="0 0 700.000000 700.000000"><path d="M234.9 73.4c-.2.2-3.3.7-6.9 1-54.6 5.6-107.9 39.9-137 88.1-12 19.8-21.5 44.7-24.6 64-.3 2.2-.7 4.2-.9 4.5-1.8 2.9-2.6 39.8-1.2 51.5 1.7 13.8 9.9 45.9 14.6 56.8 3.8 8.9 6.7 8.1-29.9 8.2-36.2.2-36.8.3-43 6.9-4.3 4.5-5.9 8.9-5.6 15.3.5 7.9 4.2 13.6 11.5 17.4l4.3 2.2H141c96.6 0 125.7-.2 129.2-1.2 7.7-2.2 11.5-7 18.2-22.8 1.4-3.5 3.8-8.9 5.2-12 4.4-9.9 6-13.6 8.9-20.7l2.9-6.9 1.3 4.9c.7 2.7 1.5 5.8 1.7 6.9.2 1.1 1.1 4.7 1.9 8 .9 3.3 1.8 7.1 2.1 8.5.3 1.4 2 9 3.9 17s6.7 27.9 10.6 44.3c3.9 16.4 7.8 31.4 8.7 33.3 5.9 12.5 24.4 15.1 33.5 4.8 1.9-2.3 37.1-59.4 59.5-96.6l3.2-5.3h33.8c24.7-.1 34.9-.4 37.6-1.4 4.9-1.6 11.5-9.2 12.4-14 .4-2 .8-4.3.9-5.2.5-2.5-3-11.8-5.5-14.4-1.2-1.3-4.3-3.3-6.7-4.5-4.4-2.1-5.8-2.1-46.4-2.1-40.5.1-42 .2-46.4 2.2-5.9 2.8-7.2 4.5-20.1 25.5-5.9 9.9-11.7 19.3-12.9 21.1-1.1 1.7-5.1 8.4-9 14.7l-7 11.6-2.7-11.3c-2.9-12-18.6-77.9-19.3-81.2-.2-1.1-1.4-6.1-2.6-11-1.1-5-2.2-9.7-2.4-10.5-4.2-18.2-5.4-21.6-9.3-25.6-6.8-7.2-18.5-8.3-26.4-2.5-2.2 1.6-4.7 3.9-5.4 5-.8 1.1-6.2 12.9-12 26.3S271 300.3 270 302.5c-1 2.2-4.5 10.3-7.8 18-3.3 7.7-7.3 16.9-9 20.5l-3 6.5H128.8l-2.8-5.1c-4.3-8.1-9.7-21.3-12-29.4-3.1-10.8-6.1-22.2-6.6-24.5-5.5-32.2-1.9-61 11.3-89.5 16.5-35.7 47.7-63.9 84.4-76.3 19.5-6.6 31.1-8.1 58.4-7.6 5.8.1 27.5 4.4 35.7 7 24.3 7.9 43.9 20.1 62.8 39.3 10.7 10.9 13.9 12.7 21.5 12.7 7.3 0 11.2-2 18.7-9.9 18.2-19.1 34.9-30.5 57.9-39.5 7.9-3.2 24.4-7.4 32.5-8.5 11.8-1.5 45.1-.6 50.6 1.3.7.2 2.4.7 3.8.9 15.8 3 38.7 13.6 54 25 7.5 5.7 19.8 17.5 27 26.1 8.3 9.8 18.6 28.8 23.8 43.7 5.8 16.3 7.7 28.9 7.7 49.3-.1 13.4-.4 17.1-3.1 30-.9 4.4-6.5 24.7-7.4 27-.5 1.1-1.2 3.1-1.6 4.5-.3 1.4-1.9 5.1-3.5 8.2-1.5 3.2-2.6 5.8-2.3 5.8.3 0-.3 1.2-1.4 2.7-1 1.6-2.1 3.5-2.5 4.4-2 5.7-20.5 32.6-32.6 47.5-13.6 16.8-47.2 51.9-64.6 67.5-3.4 3-9.7 8.6-14 12.5-4.4 3.9-9.6 8.4-11.5 10-1.9 1.5-5.3 4.4-7.6 6.4-2.2 1.9-6 5.1-8.3 7-2.4 1.9-4.9 4-5.5 4.5-.6.6-7.4 6-15.1 12.1-13 10.4-23.9 18.5-49.7 37.5-12.4 9.1-44.4 30.9-45.2 30.9-.6 0-8-5-21-14-19.1-13.2-47.3-33.8-62.1-45.2-11.5-8.9-33.4-26.4-41.5-33.2-11.8-9.8-15.1-11.6-22.1-11.6-16.3 0-26.2 18.1-17.2 31.6 2.6 4 20.4 19.1 46.3 39.2 8 6.2 15.2 11.9 16 12.6 6.2 5 39.9 29.3 55.5 40 39.9 27.4 41.7 28.3 51.8 25.5 2.1-.6 12-6.5 22-13.2 26.1-17.3 44.5-30.3 68.1-48 23.3-17.4 55-43 72.1-58.2 1.2-1.1 4-3.5 6.1-5.3 22.7-19.5 56.9-54.2 75.6-76.5 19.9-23.8 35.5-47 45.6-67.9 4.6-9.5 9.9-22.8 10.7-27.1.2-1 1.5-5.5 2.9-10 7-23.1 9.5-39.7 9.1-62.2-.4-19.1-.7-21.5-6-45.6-1.3-6.2-7.5-22.4-12.5-32.6-27.9-58-83.2-97.7-146.5-105-8.5-1-35.7-1-44-.1-23.7 2.7-46.5 9.6-67.2 20.3-15.1 7.8-24 13.7-35 23.2-3.3 2.9-6.4 5.3-6.8 5.3-.4 0-3.7-2.6-7.3-5.8-22.4-19.6-57.9-35.9-89.7-41.1-3.3-.6-7.6-1.3-9.5-1.6-3.8-.7-39.5-1.6-40.1-1.1z"/></svg>