<svg version="1" xmlns="http://www.w3.org/2000/svg" width="360" height="360" viewBox="0 0 270.000000 270.000000"><path d="M161.5 1.2C153.9 4 136 18.6 136 22c0 .4-.4 1-.8 1.2-.4.1-4.2 4.8-8.5 10.3C113.3 51 103.8 61 87 75.4c-5.3 4.5-20.8 15.2-29.2 20.1-24.5 14.3-33.3 22.8-41.5 40.3-5.2 10.9-9.1 27.4-8.5 35.7 1.5 23 11.4 42.4 30.7 60.5 20.5 19.2 49.5 32.9 78 36.8 5.8.8 31.1.8 37 0 11.9-1.6 33.1-7.6 36.5-10.4.8-.6 2.6-1.5 3.9-1.9 1.2-.4 3.9-1.8 6-3.1 2-1.3 4.5-3 5.5-3.7 4.3-2.8 14.4-11.8 18.1-16.2 2.2-2.6 4.6-5.3 5.3-6 .6-.8 1.2-1.6 1.2-1.8 0-.3 1.6-2.8 3.5-5.7 6-8.9 13.7-27.3 15.9-38.2.3-1.3.8-3.4 1.1-4.8.5-2.2 1.1-5.7 2-11.5.2-1.1.4-2 .5-2 .4 0 1-8.2 1.4-18 .6-18.9-2.4-35.8-11.8-65-1.2-3.7-9-22.2-10.8-25.3-1-1.8-1.8-3.7-1.8-4.3 0-.5-.5-1.5-1-2.2-.6-.7-3.3-5.1-6.1-9.8-9.6-16.2-23.3-30.3-34.9-35.7-4.3-2-7.4-2.6-14.5-2.8-5-.2-10.3.1-12 .8z"/></svg>