<svg xmlns="http://www.w3.org/2000/svg" width="20" height="20" viewBox="0 0 56.69 56.69"><path d="M51.872 15.498c-.545 2.871-4.157 12.918-10.705 21.792-2.863 3.745-6.209 7.43-10.504 9.97-1.585.941-4.717 2.125-6.8 1.242-4.079-1.73-5.53-8.789-6.71-13.514-.695-2.786-1.354-5.429-2.205-7.853-.639-1.82-.949-3.672-1.943-5.361-1.639-2.764-3.984-.107-6.446-.471-1.042-.15-1.233-1.262-1.942-1.939v-.266c3.577-2.853 6.728-6.309 10.861-8.738 1.299-.766 3.509-1.584 5.297-1.059 1.664.485 3.027 2.727 3.619 4.588.689 2.162 1.061 4.783 1.411 6.886.63 3.747.422 9.375 3.174 12.319 3.055 3.269 5.386-1.268 6.629-3.578 1.075-2.001 2.038-4.093 2.205-6 .399-4.56-1.772-5.174-5.916-4.859C34.236 11.4 41.108 8.371 43.136 8.058c2.499-.383 6.144-.303 7.856 1.864 1.226 1.544 1.236 3.587.88 5.576z"/></svg>